<svg width="206" height="59" viewBox="0 0 206 59" fill="none" xmlns="http://www.w3.org/2000/svg">
<rect width="206" height="59" fill="#1E1E1E"/>
<g clip-path="url(#clip0_0_1)">
<rect width="1728" height="9649" transform="translate(-400 -6629)" fill="white"/>
<rect x="-401" y="-396" width="1729" height="709" fill="#FFFAF7"/>
<path d="M204.046 52.1957C204.046 55.3399 201.446 57.8867 198.23 57.8867H7.90801C4.69372 57.8867 2.08467 55.3399 2.08467 52.1957V6.81162C2.08467 3.66892 4.69372 1.11316 7.90801 1.11316H198.229C201.446 1.11316 204.045 3.66892 204.045 6.81162L204.046 52.1957Z" fill="black"/>
<path d="M197.617 1.18185C201.119 1.18185 203.969 3.96038 203.969 7.37501V51.625C203.969 55.0396 201.119 57.8182 197.617 57.8182H8.51415C5.01197 57.8182 2.16219 55.0396 2.16219 51.625V7.37501C2.16219 3.96038 5.01197 1.18185 8.51415 1.18185H197.617ZM197.617 5.4802e-06H8.51415C4.35578 5.4802e-06 0.950043 3.3206 0.950043 7.37501V51.625C0.950043 55.6794 4.35578 59 8.51415 59H197.617C201.775 59 205.181 55.6794 205.181 51.625V7.37501C205.181 3.3206 201.775 5.4802e-06 197.617 5.4802e-06Z" fill="#A6A6A6"/>
<path d="M46.5283 29.1815C46.4845 24.4276 50.5207 22.1148 50.7052 22.0071C48.4194 18.7577 44.8763 18.3137 43.6313 18.2783C40.6556 17.973 37.7691 20.0144 36.2533 20.0144C34.7071 20.0144 32.3729 18.3078 29.857 18.3579C26.6196 18.4066 23.5909 20.2341 21.9299 23.072C18.5018 28.8585 21.0585 37.3618 24.3428 42.0391C25.9857 44.3297 27.9055 46.8874 30.4183 46.7974C32.8766 46.6986 33.7949 45.2693 36.7616 45.2693C39.701 45.2693 40.5633 46.7974 43.126 46.7399C45.7644 46.6986 47.4254 44.4389 49.0109 42.1276C50.9095 39.5021 51.6719 36.9164 51.7022 36.7836C51.6401 36.763 46.5783 34.8794 46.5283 29.1815Z" fill="white"/>
<path d="M41.6873 15.2014C43.0095 13.5893 43.9142 11.3959 43.663 9.17017C41.7493 9.25277 39.356 10.4608 37.9779 12.0376C36.7585 13.427 35.6693 15.7044 35.9507 17.8461C38.1004 18.0025 40.3076 16.7885 41.6873 15.2014Z" fill="white"/>
<path d="M82.1053 46.4691H78.6697L76.7877 40.7034H70.2463L68.4536 46.4691H65.1088L71.5897 26.8398H75.5926L82.1053 46.4691ZM76.2204 38.2844L74.5185 33.1587C74.3385 32.6351 74.0011 31.402 73.5034 29.4609H73.4429C73.2447 30.2958 72.9255 31.5289 72.4868 33.1587L70.8151 38.2844H76.2204Z" fill="white"/>
<path d="M98.772 39.218C98.772 41.6252 98.1049 43.5279 96.7706 44.9248C95.5754 46.1682 94.0914 46.7892 92.3198 46.7892C90.4076 46.7892 89.034 46.1195 88.1974 44.7802H88.1369V52.2363H84.9116V36.9745C84.9116 35.4612 84.8707 33.908 84.7921 32.315H87.6286L87.8086 34.5585H87.8691C88.9447 32.8681 90.5771 32.0244 92.7676 32.0244C94.4802 32.0244 95.9098 32.6837 97.0535 34.0039C98.2002 35.3255 98.772 37.063 98.772 39.218ZM95.4862 39.333C95.4862 37.9554 95.1685 36.8196 94.5301 35.9258C93.8327 34.9936 92.8962 34.5275 91.7223 34.5275C90.9265 34.5275 90.2034 34.7871 89.5574 35.2989C88.9099 35.8152 88.4864 36.4892 88.2882 37.3241C88.1883 37.7135 88.1384 38.0321 88.1384 38.2828V40.6428C88.1384 41.6724 88.4622 42.5412 89.1096 43.2506C89.7571 43.9601 90.5983 44.3141 91.633 44.3141C92.8478 44.3141 93.7933 43.8569 94.4696 42.9453C95.1473 42.0323 95.4862 40.8287 95.4862 39.333Z" fill="white"/>
<path d="M115.469 39.218C115.469 41.6252 114.802 43.5279 113.466 44.9248C112.272 46.1682 110.788 46.7892 109.017 46.7892C107.105 46.7892 105.731 46.1195 104.896 44.7802H104.835V52.2363H101.61V36.9745C101.61 35.4612 101.569 33.908 101.491 32.315H104.327L104.507 34.5585H104.568C105.642 32.8681 107.274 32.0244 109.466 32.0244C111.177 32.0244 112.607 32.6837 113.754 34.0039C114.896 35.3255 115.469 37.063 115.469 39.218ZM112.183 39.333C112.183 37.9554 111.864 36.8196 111.226 35.9258C110.528 34.9936 109.595 34.5275 108.419 34.5275C107.622 34.5275 106.9 34.7871 106.253 35.2989C105.605 35.8152 105.183 36.4892 104.985 37.3241C104.887 37.7135 104.835 38.0321 104.835 38.2828V40.6428C104.835 41.6724 105.159 42.5412 105.804 43.2506C106.451 43.9586 107.292 44.3141 108.33 44.3141C109.545 44.3141 110.49 43.8569 111.167 42.9453C111.844 42.0323 112.183 40.8287 112.183 39.333Z" fill="white"/>
<path d="M134.137 40.964C134.137 42.6337 133.543 43.9922 132.349 45.0409C131.037 46.187 129.211 46.7593 126.865 46.7593C124.699 46.7593 122.962 46.3522 121.647 45.5365L122.395 42.9154C123.811 43.7503 125.364 44.1692 127.057 44.1692C128.272 44.1692 129.218 43.9007 129.897 43.3668C130.573 42.8328 130.91 42.116 130.91 41.2221C130.91 40.4256 130.632 39.7545 130.074 39.2102C129.519 38.6659 128.591 38.16 127.296 37.6924C123.771 36.4107 122.01 34.533 122.01 32.0638C122.01 30.4502 122.628 29.1271 123.864 28.0976C125.095 27.0665 126.738 26.5518 128.792 26.5518C130.624 26.5518 132.146 26.863 133.361 27.484L132.555 30.0475C131.42 29.4457 130.137 29.1448 128.702 29.1448C127.567 29.1448 126.681 29.4177 126.045 29.9605C125.508 30.4458 125.239 31.0372 125.239 31.7379C125.239 32.5137 125.546 33.1553 126.163 33.6598C126.7 34.1259 127.676 34.6303 129.092 35.1746C130.824 35.8546 132.096 36.6496 132.915 37.5612C133.73 38.4698 134.137 39.607 134.137 40.964Z" fill="white"/>
<path d="M144.801 34.6748H141.246V41.5468C141.246 43.2947 141.872 44.1679 143.128 44.1679C143.704 44.1679 144.182 44.1192 144.561 44.0219L144.65 46.4099C144.014 46.6415 143.178 46.758 142.142 46.758C140.868 46.758 139.872 46.3789 139.154 45.6223C138.438 44.8641 138.078 43.5927 138.078 41.8064V34.6719H135.96V32.3119H138.078V29.7203L141.246 28.7881V32.3119H144.801V34.6748Z" fill="white"/>
<path d="M160.842 39.275C160.842 41.4506 160.203 43.2369 158.929 44.6337C157.594 46.0718 155.82 46.7887 153.61 46.7887C151.48 46.7887 149.784 46.0998 148.52 44.7222C147.255 43.3445 146.623 41.6055 146.623 39.5095C146.623 37.3162 147.273 35.5197 148.579 34.1228C149.881 32.7245 151.639 32.0254 153.849 32.0254C155.979 32.0254 157.693 32.7142 158.987 34.0933C160.224 35.4312 160.842 37.1584 160.842 39.275ZM157.495 39.3768C157.495 38.0714 157.209 36.9519 156.63 36.0182C155.954 34.8884 154.987 34.3249 153.734 34.3249C152.438 34.3249 151.453 34.8898 150.777 36.0182C150.197 36.9534 149.911 38.0906 149.911 39.4358C149.911 40.7412 150.197 41.8607 150.777 42.7929C151.474 43.9227 152.448 44.4862 153.706 44.4862C154.937 44.4862 155.904 43.9109 156.601 42.7634C157.196 41.812 157.495 40.6807 157.495 39.3768Z" fill="white"/>
<path d="M171.325 35.0806C171.006 35.0231 170.666 34.9936 170.309 34.9936C169.174 34.9936 168.297 35.411 167.68 36.2473C167.142 36.9848 166.873 37.917 166.873 39.0425V46.4691H163.649L163.68 36.7724C163.68 35.1411 163.639 33.6558 163.559 32.3165H166.368L166.486 35.0246H166.575C166.916 34.0938 167.453 33.3445 168.188 32.7826C168.906 32.2766 169.682 32.0244 170.519 32.0244C170.817 32.0244 171.086 32.0451 171.325 32.0819V35.0806Z" fill="white"/>
<path d="M185.75 38.7216C185.75 39.285 185.712 39.76 185.632 40.1479H175.956C175.994 41.5462 176.461 42.6156 177.36 43.3531C178.175 44.0124 179.23 44.3428 180.525 44.3428C181.958 44.3428 183.265 44.1201 184.44 43.6732L184.945 45.8562C183.572 46.4403 181.95 46.7308 180.079 46.7308C177.828 46.7308 176.061 46.0848 174.775 44.7942C173.492 43.5035 172.849 41.7704 172.849 39.5963C172.849 37.4619 173.446 35.6846 174.643 34.2671C175.896 32.7537 177.588 31.9971 179.719 31.9971C181.811 31.9971 183.395 32.7537 184.47 34.2671C185.322 35.4692 185.75 36.956 185.75 38.7216ZM182.675 37.9059C182.696 36.9737 182.485 36.1684 182.048 35.4884C181.49 34.6137 180.632 34.1771 179.478 34.1771C178.424 34.1771 177.566 34.6034 176.911 35.4589C176.374 36.1389 176.054 36.9545 175.956 37.9044H182.675V37.9059Z" fill="white"/>
<path d="M75.1539 14.7633C75.1539 16.4994 74.6199 17.8063 73.5534 18.6839C72.5655 19.4937 71.1616 19.8993 69.3432 19.8993C68.4415 19.8993 67.67 19.8609 67.024 19.7842V10.2985C67.8667 10.1657 68.7744 10.0979 69.7547 10.0979C71.4868 10.0979 72.7924 10.4652 73.6729 11.1997C74.6592 12.0302 75.1539 13.2175 75.1539 14.7633ZM73.4823 14.8061C73.4823 13.6807 73.1767 12.8178 72.5655 12.216C71.9543 11.6157 71.0617 11.3148 69.8863 11.3148C69.387 11.3148 68.9619 11.3472 68.6095 11.4151V18.6264C68.8046 18.6559 69.1616 18.6691 69.6805 18.6691C70.8938 18.6691 71.8303 18.3402 72.4898 17.6824C73.1494 17.0245 73.4823 16.0658 73.4823 14.8061Z" fill="white"/>
<path d="M84.0176 16.2796C84.0176 17.349 83.7044 18.2252 83.0781 18.9125C82.4215 19.619 81.5517 19.9716 80.4655 19.9716C79.4186 19.9716 78.585 19.6338 77.9633 18.9553C77.343 18.2783 77.0329 17.4242 77.0329 16.3947C77.0329 15.3179 77.3521 14.4344 77.9935 13.7485C78.6349 13.0627 79.4973 12.719 80.5835 12.719C81.6303 12.719 82.4715 13.0568 83.1084 13.7338C83.7135 14.3916 84.0176 15.2412 84.0176 16.2796ZM82.3731 16.3298C82.3731 15.6882 82.2309 15.138 81.948 14.6793C81.6152 14.1247 81.1417 13.8474 80.526 13.8474C79.8891 13.8474 79.405 14.1247 79.0722 14.6793C78.7877 15.138 78.6471 15.697 78.6471 16.3578C78.6471 16.9994 78.7893 17.5496 79.0722 18.0083C79.4156 18.5629 79.8936 18.8402 80.5108 18.8402C81.116 18.8402 81.591 18.5585 81.9329 17.9936C82.2264 17.526 82.3731 16.9714 82.3731 16.3298Z" fill="white"/>
<path d="M95.9023 12.8606L93.6709 19.8137H92.2185L91.2942 16.7944C91.0597 16.0407 90.8691 15.2914 90.7209 14.548H90.6921C90.5544 15.312 90.3638 16.0599 90.1188 16.7944L89.1369 19.8137H87.668L85.5697 12.8606H87.199L88.0053 16.1661C88.2005 16.9478 88.3609 17.6927 88.4894 18.3977H88.5182C88.6362 17.8166 88.8313 17.0761 89.1067 16.1808L90.1188 12.8621H91.4107L92.3804 16.11C92.6149 16.9021 92.8055 17.6647 92.9523 18.3992H92.9961C93.1035 17.6838 93.2654 16.9213 93.4802 16.11L94.3456 12.8621H95.9023V12.8606Z" fill="white"/>
<path d="M104.121 19.8133H102.536V15.8308C102.536 14.6036 102.058 13.99 101.099 13.99C100.628 13.99 100.249 14.1581 99.9536 14.4959C99.6616 14.8337 99.5134 15.2319 99.5134 15.6877V19.8118H97.9279V14.847C97.9279 14.2363 97.9083 13.574 97.8704 12.8572H99.2637L99.3379 13.9443H99.3817C99.5663 13.6065 99.8416 13.3277 100.203 13.105C100.633 12.8454 101.114 12.7141 101.64 12.7141C102.306 12.7141 102.86 12.9236 103.3 13.3439C103.848 13.8587 104.121 14.6272 104.121 15.6479V19.8133Z" fill="white"/>
<path d="M108.493 19.8137H106.91V9.67017H108.493V19.8137Z" fill="white"/>
<path d="M117.828 16.2796C117.828 17.349 117.514 18.2252 116.888 18.9125C116.232 19.619 115.36 19.9716 114.275 19.9716C113.227 19.9716 112.393 19.6338 111.773 18.9553C111.153 18.2783 110.843 17.4242 110.843 16.3947C110.843 15.3179 111.162 14.4344 111.804 13.7485C112.445 13.0627 113.307 12.719 114.392 12.719C115.44 12.719 116.28 13.0568 116.918 13.7338C117.523 14.3916 117.828 15.2412 117.828 16.2796ZM116.182 16.3298C116.182 15.6882 116.039 15.138 115.756 14.6793C115.425 14.1247 114.95 13.8474 114.336 13.8474C113.698 13.8474 113.213 14.1247 112.882 14.6793C112.598 15.138 112.457 15.697 112.457 16.3578C112.457 16.9994 112.599 17.5496 112.882 18.0083C113.226 18.5629 113.704 18.8402 114.321 18.8402C114.926 18.8402 115.399 18.5585 115.741 17.9936C116.036 17.526 116.182 16.9714 116.182 16.3298Z" fill="white"/>
<path d="M125.501 19.8137H124.077L123.959 19.0128H123.915C123.428 19.6515 122.734 19.9716 121.832 19.9716C121.159 19.9716 120.614 19.7606 120.204 19.3417C119.832 18.9612 119.646 18.4877 119.646 17.9257C119.646 17.0761 120.009 16.4286 120.74 15.9802C121.469 15.5318 122.495 15.312 123.815 15.3224V15.1926C123.815 14.2766 123.322 13.8193 122.334 13.8193C121.631 13.8193 121.011 13.9919 120.475 14.3341L120.153 13.3193C120.815 12.9196 121.634 12.719 122.599 12.719C124.463 12.719 125.398 13.6777 125.398 15.5952V18.1558C125.398 18.8506 125.433 19.4037 125.501 19.8137ZM123.855 17.4242V16.3519C122.106 16.3224 121.231 16.79 121.231 17.7532C121.231 18.116 121.331 18.3874 121.535 18.5688C121.74 18.7503 122 18.8402 122.31 18.8402C122.658 18.8402 122.983 18.7326 123.28 18.5187C123.578 18.3033 123.761 18.0305 123.829 17.6956C123.846 17.6204 123.855 17.529 123.855 17.4242Z" fill="white"/>
<path d="M134.509 19.8137H133.103L133.028 18.6972H132.985C132.535 19.5468 131.77 19.9716 130.694 19.9716C129.835 19.9716 129.119 19.6426 128.552 18.9848C127.985 18.3269 127.702 17.4729 127.702 16.4242C127.702 15.2988 128.009 14.3872 128.626 13.691C129.224 13.042 129.956 12.7175 130.827 12.7175C131.785 12.7175 132.455 13.0317 132.836 13.6615H132.867V9.67017H134.453V17.9405C134.453 18.6175 134.472 19.2414 134.509 19.8137ZM132.867 16.8814V15.7221C132.867 15.5215 132.851 15.3592 132.823 15.2353C132.733 14.8636 132.541 14.5509 132.249 14.2987C131.954 14.0465 131.599 13.9196 131.189 13.9196C130.597 13.9196 130.134 14.1483 129.794 14.607C129.457 15.0657 129.286 15.6513 129.286 16.3667C129.286 17.054 129.448 17.6116 129.773 18.0408C130.116 18.498 130.579 18.7267 131.159 18.7267C131.679 18.7267 132.095 18.5364 132.411 18.1544C132.717 17.8018 132.867 17.377 132.867 16.8814Z" fill="white"/>
<path d="M148.069 16.2796C148.069 17.349 147.756 18.2252 147.129 18.9125C146.473 19.619 145.604 19.9716 144.517 19.9716C143.471 19.9716 142.638 19.6338 142.015 18.9553C141.394 18.2783 141.084 17.4242 141.084 16.3947C141.084 15.3179 141.403 14.4344 142.045 13.7485C142.686 13.0627 143.549 12.719 144.636 12.719C145.682 12.719 146.524 13.0568 147.16 13.7338C147.765 14.3916 148.069 15.2412 148.069 16.2796ZM146.426 16.3298C146.426 15.6882 146.284 15.138 146.001 14.6793C145.666 14.1247 145.195 13.8474 144.577 13.8474C143.942 13.8474 143.458 14.1247 143.123 14.6793C142.839 15.138 142.698 15.697 142.698 16.3578C142.698 16.9994 142.841 17.5496 143.123 18.0083C143.467 18.5629 143.945 18.8402 144.562 18.8402C145.167 18.8402 145.644 18.5585 145.986 17.9936C146.278 17.526 146.426 16.9714 146.426 16.3298Z" fill="white"/>
<path d="M156.594 19.8133H155.01V15.8308C155.01 14.6036 154.532 13.99 153.571 13.99C153.1 13.99 152.721 14.1581 152.427 14.4959C152.134 14.8337 151.987 15.2319 151.987 15.6877V19.8118H150.4V14.847C150.4 14.2363 150.382 13.574 150.344 12.8572H151.736L151.81 13.9443H151.854C152.04 13.6065 152.315 13.3277 152.675 13.105C153.107 12.8454 153.586 12.7141 154.114 12.7141C154.778 12.7141 155.332 12.9236 155.772 13.3439C156.321 13.8587 156.594 14.6272 156.594 15.6479V19.8133Z" fill="white"/>
<path d="M167.264 14.0184H165.518V17.3962C165.518 18.2546 165.828 18.6839 166.442 18.6839C166.726 18.6839 166.962 18.6603 167.149 18.6116L167.189 19.7842C166.876 19.8993 166.465 19.9568 165.958 19.9568C165.332 19.9568 164.845 19.7709 164.492 19.3992C164.138 19.0275 163.963 18.4021 163.963 17.5245V14.0184H162.92V12.8606H163.963V11.5862L165.516 11.1289V12.8591H167.262V14.0184H167.264Z" fill="white"/>
<path d="M175.657 19.8137H174.07V15.8607C174.07 14.6144 173.592 13.9904 172.634 13.9904C171.899 13.9904 171.397 14.3518 171.121 15.0746C171.074 15.2265 171.047 15.4123 171.047 15.6306V19.8123H169.463V9.67017H171.047V13.8606H171.077C171.577 13.0981 172.292 12.7175 173.22 12.7175C173.876 12.7175 174.419 12.927 174.85 13.3473C175.387 13.871 175.657 14.6498 175.657 15.6793V19.8137Z" fill="white"/>
<path d="M184.314 16.0078C184.314 16.2851 184.293 16.5182 184.255 16.7085H179.501C179.522 17.3958 179.749 17.9194 180.189 18.2823C180.591 18.6068 181.11 18.769 181.746 18.769C182.449 18.769 183.091 18.6599 183.669 18.4401L183.917 19.5139C183.24 19.8001 182.445 19.9431 181.523 19.9431C180.419 19.9431 179.549 19.626 178.92 18.9918C178.287 18.3575 177.974 17.5064 177.974 16.4385C177.974 15.3898 178.266 14.5166 178.855 13.8204C179.469 13.077 180.299 12.7053 181.348 12.7053C182.374 12.7053 183.153 13.077 183.679 13.8204C184.104 14.4104 184.314 15.1405 184.314 16.0078ZM182.802 15.6081C182.814 15.1494 182.709 14.7541 182.495 14.4207C182.219 13.9915 181.8 13.7762 181.233 13.7762C180.715 13.7762 180.293 13.9856 179.971 14.406C179.708 14.7408 179.552 15.1405 179.501 15.6081H182.802Z" fill="white"/>
</g>
<defs>
<clipPath id="clip0_0_1">
<rect width="1728" height="9649" fill="white" transform="translate(-400 -6629)"/>
</clipPath>
</defs>
</svg>
