<svg width="204" height="59" viewBox="0 0 204 59" fill="none" xmlns="http://www.w3.org/2000/svg">
<path d="M196.396 59H7.55371C3.40106 59 0 55.6794 0 51.625V7.375C0 3.32059 3.40106 7.56029e-07 7.55371 7.56029e-07H196.396C200.549 7.56029e-07 203.95 3.32059 203.95 7.375V51.625C203.95 55.6794 200.549 59 196.396 59Z" fill="black"/>
<path d="M196.396 1.18184C199.894 1.18184 202.74 3.96037 202.74 7.375V51.625C202.74 55.0396 199.894 57.8182 196.396 57.8182H7.55371C4.05634 57.8182 1.21048 55.0396 1.21048 51.625V7.375C1.21048 3.96037 4.05634 1.18184 7.55371 1.18184H196.396ZM196.396 7.56029e-07H7.55371C3.40106 7.56029e-07 0 3.32059 0 7.375V51.625C0 55.6794 3.40106 59 7.55371 59H196.396C200.549 59 203.95 55.6794 203.95 51.625V7.375C203.95 3.32059 200.549 7.56029e-07 196.396 7.56029e-07Z" fill="#A6A6A6"/>
<path d="M71.6356 15.1096C71.6356 16.3413 71.2579 17.3277 70.5139 18.0633C69.6584 18.9354 68.5442 19.3742 67.1789 19.3742C65.874 19.3742 64.7598 18.928 63.8458 18.0486C62.9299 17.1562 62.4729 16.061 62.4729 14.7501C62.4729 13.4392 62.9299 12.344 63.8458 11.459C64.7598 10.5722 65.874 10.126 67.1789 10.126C67.8285 10.126 68.4479 10.2569 69.039 10.5003C69.6282 10.7455 70.1078 11.0774 70.4553 11.4867L69.6659 12.2647C69.0598 11.5659 68.2345 11.2212 67.1789 11.2212C66.2271 11.2212 65.4019 11.5457 64.7013 12.2002C64.0082 12.8566 63.6607 13.7065 63.6607 14.7501C63.6607 15.7937 64.0082 16.651 64.7013 17.3074C65.4019 17.9545 66.2271 18.2864 67.1789 18.2864C68.1892 18.2864 69.039 17.9545 69.7094 17.3C70.1513 16.8667 70.4024 16.2694 70.4685 15.506H67.1789V14.4404H71.5676C71.6205 14.6708 71.6356 14.8939 71.6356 15.1096Z" fill="white" stroke="white" stroke-width="0.16" stroke-miterlimit="10"/>
<path d="M78.5982 11.4151H74.4757V14.2176H78.1922V15.2833H74.4757V18.0858H78.5982V19.1717H73.3087V10.3291H78.5982V11.4151Z" fill="white" stroke="white" stroke-width="0.16" stroke-miterlimit="10"/>
<path d="M83.5118 19.1717H82.3448V11.4151H79.8162V10.3291H86.0423V11.4151H83.5118V19.1717Z" fill="white" stroke="white" stroke-width="0.16" stroke-miterlimit="10"/>
<path d="M90.5482 19.1717V10.3291H91.7133V19.1717H90.5482Z" fill="white" stroke="white" stroke-width="0.16" stroke-miterlimit="10"/>
<path d="M96.8781 19.1717H95.7205V11.4151H93.1825V10.3291H99.4161V11.4151H96.8781V19.1717Z" fill="white" stroke="white" stroke-width="0.16" stroke-miterlimit="10"/>
<path d="M111.204 18.0338C110.311 18.928 109.204 19.3742 107.884 19.3742C106.556 19.3742 105.45 18.928 104.556 18.0338C103.665 17.1414 103.221 16.0463 103.221 14.7501C103.221 13.4539 103.665 12.3588 104.556 11.4664C105.45 10.5722 106.556 10.126 107.884 10.126C109.196 10.126 110.303 10.5722 111.196 11.4738C112.095 12.3735 112.539 13.4613 112.539 14.7501C112.539 16.0463 112.095 17.1414 111.204 18.0338ZM105.42 17.2926C106.092 17.9545 106.909 18.2864 107.884 18.2864C108.851 18.2864 109.676 17.9545 110.341 17.2926C111.011 16.6307 111.351 15.7808 111.351 14.7501C111.351 13.7194 111.011 12.8695 110.341 12.2076C109.676 11.5457 108.851 11.2138 107.884 11.2138C106.909 11.2138 106.092 11.5457 105.42 12.2076C104.749 12.8695 104.409 13.7194 104.409 14.7501C104.409 15.7808 104.749 16.6307 105.42 17.2926Z" fill="white" stroke="white" stroke-width="0.16" stroke-miterlimit="10"/>
<path d="M114.176 19.1717V10.3291H115.592L119.996 17.2063H120.047L119.996 15.5063V10.3291H121.161V19.1717H119.945L115.334 11.9553H115.283L115.334 13.6626V19.1717H114.176Z" fill="white" stroke="white" stroke-width="0.16" stroke-miterlimit="10"/>
<path d="M102.934 32.0853C99.386 32.0853 96.4872 34.7218 96.4872 38.3596C96.4872 41.9678 99.386 44.632 102.934 44.632C106.49 44.632 109.389 41.9678 109.389 38.3596C109.389 34.7218 106.49 32.0853 102.934 32.0853ZM102.934 42.1614C100.987 42.1614 99.3123 40.5923 99.3123 38.3596C99.3123 36.0973 100.987 34.5559 102.934 34.5559C104.881 34.5559 106.564 36.0973 106.564 38.3596C106.564 40.5923 104.881 42.1614 102.934 42.1614ZM88.8674 32.0853C85.3115 32.0853 82.4203 34.7218 82.4203 38.3596C82.4203 41.9678 85.3115 44.632 88.8674 44.632C92.4214 44.632 95.3145 41.9678 95.3145 38.3596C95.3145 34.7218 92.4214 32.0853 88.8674 32.0853ZM88.8674 42.1614C86.9186 42.1614 85.2379 40.5923 85.2379 38.3596C85.2379 36.0973 86.9186 34.5559 88.8674 34.5559C90.8144 34.5559 92.4894 36.0973 92.4894 38.3596C92.4894 40.5923 90.8144 42.1614 88.8674 42.1614ZM72.1284 34.0083V36.6744H78.6492C78.4584 38.1641 77.9485 39.2593 77.1667 40.0226C76.215 40.9445 74.7326 41.9678 72.1284 41.9678C68.1155 41.9678 64.9732 38.8057 64.9732 34.8878C64.9732 30.9698 68.1155 27.8078 72.1284 27.8078C74.2982 27.8078 75.8769 28.6356 77.0421 29.7087L78.9664 27.8299C77.3367 26.3107 75.1688 25.1436 72.1284 25.1436C66.6255 25.1436 62.0008 29.5151 62.0008 34.8878C62.0008 40.2605 66.6255 44.632 72.1284 44.632C75.1027 44.632 77.3367 43.6806 79.0929 41.8959C80.8926 40.1388 81.4535 37.6682 81.4535 35.6732C81.4535 35.0537 81.4006 34.484 81.3062 34.0083H72.1284ZM140.576 36.0752C140.046 34.6721 138.408 32.0853 135.073 32.0853C131.769 32.0853 129.017 34.6278 129.017 38.3596C129.017 41.8737 131.74 44.632 135.391 44.632C138.342 44.632 140.046 42.8749 140.746 41.8516L138.556 40.4264C137.825 41.47 136.83 42.1614 135.391 42.1614C133.961 42.1614 132.936 41.5216 132.279 40.2605L140.873 36.7887L140.576 36.0752ZM131.814 38.1641C131.74 35.7451 133.738 34.5061 135.17 34.5061C136.291 34.5061 137.243 35.0537 137.56 35.8373L131.814 38.1641ZM124.829 44.2503H127.654V25.8128H124.829V44.2503ZM120.202 33.4828H120.108C119.473 32.749 118.263 32.0853 116.729 32.0853C113.511 32.0853 110.569 34.8435 110.569 38.3798C110.569 41.8959 113.511 44.632 116.729 44.632C118.263 44.632 119.473 43.9627 120.108 43.2068H120.202V44.1065C120.202 46.5052 118.89 47.794 116.773 47.794C115.047 47.794 113.976 46.5771 113.534 45.5539L111.077 46.555C111.785 48.2181 113.661 50.2646 116.773 50.2646C120.085 50.2646 122.88 48.3619 122.88 43.7322V32.4669H120.202V33.4828ZM116.971 42.1614C115.024 42.1614 113.394 40.5702 113.394 38.3798C113.394 36.1692 115.024 34.5559 116.971 34.5559C118.89 34.5559 120.402 36.1692 120.402 38.3798C120.402 40.5702 118.89 42.1614 116.971 42.1614ZM153.803 25.8128H147.046V44.2503H149.864V37.2644H153.803C156.932 37.2644 160.001 35.0537 160.001 31.5377C160.001 28.0235 156.924 25.8128 153.803 25.8128ZM153.876 34.6997H149.864V28.3775H153.876C155.98 28.3775 157.181 30.083 157.181 31.5377C157.181 32.9647 155.98 34.6997 153.876 34.6997ZM171.293 32.0502C169.258 32.0502 167.141 32.9279 166.27 34.873L168.77 35.8963C169.309 34.873 170.298 34.5412 171.344 34.5412C172.806 34.5412 174.288 35.3985 174.311 36.9122V37.1058C173.801 36.8182 172.71 36.3923 171.367 36.3923C168.674 36.3923 165.93 37.8396 165.93 40.5407C165.93 43.0113 168.136 44.6025 170.615 44.6025C172.511 44.6025 173.558 43.7673 174.215 42.7956H174.311V44.2208H177.032V37.1482C177.032 33.8792 174.532 32.0502 171.293 32.0502ZM170.954 42.154C170.032 42.154 168.748 41.7078 168.748 40.5923C168.748 39.1653 170.349 38.6177 171.735 38.6177C172.976 38.6177 173.558 38.885 174.311 39.2372C174.09 40.9445 172.585 42.154 170.954 42.154ZM186.947 32.454L183.708 40.4467H183.612L180.263 32.454H177.225L182.256 43.6235L179.385 49.8387H182.329L190.081 32.454H186.947ZM161.549 44.2503H164.374V25.8128H161.549V44.2503Z" fill="white"/>
<path d="M15.7646 11.1197C15.3208 11.5732 15.064 12.2794 15.064 13.1939V45.8135C15.064 46.728 15.3208 47.4342 15.7646 47.8877L15.8741 47.9873L34.596 29.7157V29.2843L15.8741 11.0127L15.7646 11.1197Z" fill="url(#paint0_linear_0_405)"/>
<path d="M40.8296 35.8093L34.5959 29.7157V29.2843L40.8372 23.1907L40.9769 23.27L48.3682 27.376C50.4776 28.5413 50.4776 30.4588 48.3682 31.6314L40.9769 35.73L40.8296 35.8093Z" fill="url(#paint1_linear_0_405)"/>
<path d="M40.9769 35.7304L34.5959 29.5004L15.7646 47.8881C16.4652 48.6071 17.6077 48.6938 18.9069 47.9747L40.9769 35.7304Z" fill="url(#paint2_linear_0_405)"/>
<path d="M40.9769 23.27L18.9069 11.0256C17.6077 10.3139 16.4652 10.4006 15.7646 11.1197L34.5959 29.5L40.9769 23.27Z" fill="url(#paint3_linear_0_405)"/>
<defs>
<linearGradient id="paint0_linear_0_405" x1="32.9337" y1="46.1532" x2="8.18676" y2="20.8066" gradientUnits="userSpaceOnUse">
<stop stop-color="#00A0FF"/>
<stop offset="0.0066" stop-color="#00A1FF"/>
<stop offset="0.2601" stop-color="#00BEFF"/>
<stop offset="0.5122" stop-color="#00D2FF"/>
<stop offset="0.7604" stop-color="#00DFFF"/>
<stop offset="1" stop-color="#00E3FF"/>
</linearGradient>
<linearGradient id="paint1_linear_0_405" x1="51.115" y1="29.4979" x2="14.5597" y2="29.4979" gradientUnits="userSpaceOnUse">
<stop stop-color="#FFE000"/>
<stop offset="0.4087" stop-color="#FFBD00"/>
<stop offset="0.7754" stop-color="#FFA500"/>
<stop offset="1" stop-color="#FF9C00"/>
</linearGradient>
<linearGradient id="paint2_linear_0_405" x1="37.5071" y1="26.1136" x2="3.94827" y2="-8.25843" gradientUnits="userSpaceOnUse">
<stop stop-color="#FF3A44"/>
<stop offset="1" stop-color="#C31162"/>
</linearGradient>
<linearGradient id="paint3_linear_0_405" x1="11.0243" y1="58.7401" x2="26.0098" y2="43.3916" gradientUnits="userSpaceOnUse">
<stop stop-color="#32A071"/>
<stop offset="0.0685" stop-color="#2DA771"/>
<stop offset="0.4762" stop-color="#15CF74"/>
<stop offset="0.8009" stop-color="#06E775"/>
<stop offset="1" stop-color="#00F076"/>
</linearGradient>
</defs>
</svg>
