<svg width="196" height="66" viewBox="0 0 196 66" fill="none" xmlns="http://www.w3.org/2000/svg">
<g id="Color Logo">
<path id="Vector" d="M67.0913 18.67C58.0343 18.6858 51.0788 25.68 51.1038 34.746C51.1287 43.7712 58.1387 50.704 67.2343 50.6813C76.2799 50.6609 83.2717 43.635 83.2354 34.603C83.1991 25.571 76.1914 18.6518 67.0913 18.67ZM70.6632 43.5987C67.2728 45.1078 64.0662 44.5065 61.2818 42.0783C57.6758 38.9284 57.0812 32.8783 59.8997 28.8253C60.6746 27.6896 61.7049 26.7515 62.9081 26.0863C64.1113 25.4211 65.4537 25.0473 66.8275 24.995C68.2013 24.9427 69.5682 25.2133 70.8185 25.7851C72.0688 26.3569 73.1675 27.214 74.0264 28.2874C75.4402 30.0212 76.1755 32.218 76.1732 35.454C76.0393 38.7264 74.4508 41.9103 70.6632 43.5987Z" fill="#DB4437"/>
<path id="Vector_2" d="M102.064 18.6582C92.9482 18.6718 85.9518 25.666 85.9768 34.7706C85.9949 43.7549 93.0413 50.6968 102.128 50.6855C111.139 50.6741 118.138 43.7141 118.147 34.7638C118.154 25.6387 111.169 18.6469 102.064 18.6582ZM100.902 44.2746C97.4733 43.8911 94.5481 41.279 93.4792 37.6594C92.1176 33.0391 94.0466 28.0442 97.9657 26.0177C103.653 23.0676 110.331 26.8279 111.003 33.3477C111.049 33.8016 111.058 34.2554 111.064 34.3825C111.062 40.6414 106.53 44.9055 100.902 44.2746Z" fill="#F4B400"/>
<path id="Vector_3" d="M174.54 39.5022C181.609 36.5748 188.683 33.6451 195.886 30.6654C195.332 29.3946 194.903 28.2622 194.363 27.1842C190.296 19.1099 181.55 16.2574 173.991 20.6622C169.033 23.5533 166.82 28.1691 166.502 33.7653C165.842 45.87 177.356 54.0737 188.485 49.4375C191.408 48.2188 193.705 46.2127 195.543 43.5848L190.097 39.9765C185.617 46.6257 176.71 45.1166 174.54 39.5022ZM179.692 25.1532C182.891 24.2454 186.198 25.5117 187.539 28.2622L173.349 34.1625C172.997 30.1185 175.766 26.2652 179.692 25.1532Z" fill="#DB4437"/>
<path id="Vector_4" d="M48.5303 23.5559H47.2368C40.6194 23.5559 34.002 23.5559 27.3846 23.5559C26.9715 23.5559 26.5608 23.608 26.1478 23.6353H25.9208C25.8573 23.6716 25.7415 23.7056 25.7415 23.7442C25.712 25.8275 25.6848 27.913 25.7007 29.9985C25.7007 30.0961 26.1046 30.1891 26.3202 30.2845C26.5804 30.3244 26.8425 30.3509 27.1054 30.3639C32.0072 30.3639 36.9105 30.3639 41.8153 30.3639C41.4704 34.6757 39.6141 38.1296 36.1102 40.7234C28.8324 46.1154 14.7193 45.1918 9.50892 33.3095C6.48842 26.422 7.36893 19.7683 12.2684 13.986C17.0976 8.28317 24.6364 6.29294 31.4989 8.79603C33.7955 9.63342 35.8674 11.079 37.903 12.1728L42.6822 7.6954C42.6822 7.6954 42.3373 7.43896 42.2034 7.31415C33.48 -0.769259 20.0841 -1.25036 10.2896 6.17948C-1.47698 15.1139 -2.92029 31.9978 7.24638 42.7023C13.2329 49.0043 20.6854 51.4824 29.259 50.5293C38.7676 49.4718 46.1747 42.9224 48.2625 33.8768C49.0615 30.4917 49.1527 26.9779 48.5303 23.5559Z" fill="#4285F4"/>
<path id="Vector_5" d="M151.597 19.7162H144.996C144.959 20.5241 144.928 21.2821 144.887 22.1807L143.493 21.1232L141.905 20.0612C138.918 18.3977 135.762 18.2911 132.562 19.192C126.46 20.9076 121.748 26.3858 121.118 32.6492C120.416 39.5866 123.06 45.0149 129.019 48.664C133.887 51.6436 140.545 51.5506 144.633 47.3024C144.667 47.2683 144.766 47.3024 144.859 47.3024C144.859 48.6186 144.973 49.9394 144.839 51.2329C144.442 55.0386 142.409 57.5031 139.059 58.4131C135.485 59.3844 131.915 58.2225 129.739 55.3359C129.219 54.6551 128.802 53.8858 128.286 53.0665L122.286 55.5628C125.668 63.6734 134.518 67.0366 142.577 63.9594L146.335 61.7876C146.346 61.7906 146.358 61.7911 146.37 61.7891C146.382 61.7871 146.393 61.7827 146.403 61.7761C146.414 61.7694 146.422 61.7608 146.429 61.7507C146.435 61.7405 146.439 61.7292 146.441 61.7173L146.65 61.5244L146.877 61.2974L147.644 60.4964L147.633 60.4691C148.209 59.7361 148.878 59.0576 149.341 58.2588C151.014 55.3744 151.638 52.2064 151.64 48.9C151.64 39.4504 151.64 30.0001 151.64 20.5491C151.647 20.2994 151.618 20.0407 151.597 19.7162ZM144.576 39.0896C143.037 42.8023 139.713 44.7085 135.812 44.2932C132.222 43.912 129.094 40.9459 128.284 37.113C128.114 36.3074 128.057 35.4746 127.996 34.939C128.13 31.1469 129.398 28.2421 132.421 26.3041C133.315 25.7145 134.318 25.3085 135.37 25.1099C136.422 24.9113 137.504 24.9239 138.551 25.1471C139.599 25.3704 140.591 25.7997 141.471 26.4101C142.351 27.0205 143.101 27.7999 143.677 28.7028C145.799 31.9798 146.06 35.5063 144.576 39.0896Z" fill="#4285F4"/>
<path id="Vector_6" d="M156.39 2.65308V49.6694H163.312V2.65308H156.39Z" fill="#0F9D58"/>
</g>
</svg>
