<svg width="123" height="27" viewBox="0 0 123 27" fill="none" xmlns="http://www.w3.org/2000/svg">
<g id="logo 3 3" clip-path="url(#clip0_0_457)">
<g id="Layer 2">
<g id="Layer 1">
<path id="Vector" d="M29.7908 16.4659L28.2851 15.3242L29.3811 14.4971L29.9113 14.0962L29.3811 13.7004L28.0237 12.6742L28.8331 12.064L28.214 11.5959L25.5944 9.60933L16.8084 2.96335L16.2794 2.56122L16.0435 2.38362L15.0286 1.61487L14.7521 1.40556L14.2205 1.0047L12.8936 0L3.31982 7.23078L0.0380568 9.71335L1.36497 10.7168L0.530258 11.3511L0 11.7494L0.530258 12.1503L1.82165 13.127L2.0576 13.3072L0.962836 14.1343L0.43131 14.5351L0.962836 14.9373L9.7476 21.5833L12.9862 24.0328L14.3423 25.0591L14.8738 25.4612L16.3771 26.6029L16.9086 27.0038L17.4401 26.6042L18.5349 25.7758L19.0664 25.3712L29.7896 17.2702L30.3186 16.8718L29.7908 16.4659ZM27.2461 13.259L27.4935 13.0712L28.8496 14.0988L27.7548 14.9259L26.5865 14.0379L26.3987 13.8958L27.2461 13.259ZM13.0776 4.6239L13.3199 4.80276L13.5013 4.93977C13.4531 5.144 13.4112 5.35205 13.3744 5.56136C13.2143 6.51883 13.1959 7.49466 13.3199 8.45748C13.722 11.5832 15.5157 14.1444 17.8867 15.4346L16.0156 16.8477L7.23713 10.1967L6.7056 9.79454L6.46965 9.61567L13.0776 4.6239ZM12.7389 19.3214L15.9838 21.7735L19.2669 19.2922L23.736 15.9153L25.8735 14.3005L26.1272 14.492L27.2296 15.3267L20.623 20.3185L17.3399 22.7998L16.5065 23.4341L15.1491 22.4078L11.9042 19.9519L3.11939 13.3072L3.9541 12.6729L12.7389 19.3214ZM1.06813 11.7494L1.90157 11.1151L3.19423 12.0919L3.42511 12.2746L2.5904 12.9089L2.35444 12.73L1.06813 11.7494ZM19.3354 24.3728L18.5451 24.969L18.0047 25.3712L16.9086 26.1995L15.4028 25.0578L14.8738 24.657L13.5165 23.6294L10.2753 21.1849L1.49436 14.5351L2.58913 13.708L11.3739 20.354L14.6125 22.8036L15.9699 23.8299L16.5001 24.232L17.0304 23.8311L17.8651 23.1969L21.1469 20.7168L27.7548 15.7301L29.2593 16.8718L19.3354 24.3728Z" fill="#FF3B0E"/>
<path id="Vector_2" d="M44.5657 6.88965C43.6355 6.88965 42.9289 7.09177 42.446 7.49602C41.9631 7.90027 41.6493 8.51425 41.5047 9.33797H41.2878L41.0899 7.12053H38.1912V24.6723H41.3208V17.1434H41.5745C41.6971 17.9604 42.0168 18.5727 42.5335 18.9803C43.0502 19.3879 43.7352 19.5917 44.5886 19.5917C46.1041 19.5917 47.2838 19.045 48.1278 17.9515C48.9719 16.858 49.3947 15.2934 49.3964 13.2578C49.3964 11.2332 48.9736 9.66864 48.1278 8.56415C47.2821 7.45965 46.0948 6.90149 44.5657 6.88965ZM45.5641 15.7924C45.1412 16.3624 44.5234 16.6474 43.7107 16.6474C42.8253 16.6474 42.2054 16.378 41.851 15.8393C41.4967 15.3006 41.3199 14.4384 41.3208 13.2527C41.3208 12.0688 41.5208 11.2027 41.9208 10.6547C42.3208 10.1067 42.9175 9.83313 43.7107 9.83397C44.504 9.83397 45.1159 10.1325 45.5463 10.7296C45.9768 11.3266 46.1924 12.1677 46.1933 13.2527C46.1933 14.3767 45.9836 15.2232 45.5641 15.7924Z" fill="#FF3B0E"/>
<path id="Vector_3" d="M59.3685 6.88965C57.4065 6.88965 56.3633 7.88674 56.239 9.88091H55.8052L55.4424 7.12053H50.6662V9.79972H52.7911V16.6817H50.6662V19.3608H58.1393V16.6817H55.9079V14.0951C55.9079 12.7326 56.0965 11.6818 56.4737 10.9427C56.8509 10.2035 57.4209 9.83397 58.1837 9.83397C58.7681 9.83397 59.1909 9.99212 59.4523 10.3084C59.7136 10.6247 59.8464 11.144 59.8506 11.8662H62.9687C62.9687 10.2594 62.6588 9.02802 62.0389 8.17216C61.419 7.31631 60.5289 6.8888 59.3685 6.88965Z" fill="#FF3B0E"/>
<path id="Vector_4" d="M69.6439 6.88965C67.8814 6.88965 66.5152 7.44189 65.5452 8.54639C64.5751 9.65088 64.0901 11.2154 64.0901 13.2401C64.0901 15.2571 64.5751 16.8216 65.5452 17.9337C66.5152 19.0458 67.8814 19.5985 69.6439 19.5917C71.4072 19.5917 72.9853 19.0374 73.957 17.9286C74.9287 16.8199 75.4107 15.2583 75.4107 13.235C75.4107 11.2116 74.9261 9.64496 73.957 8.54131C72.9878 7.43767 71.4072 6.88965 69.6439 6.88965ZM71.6 15.7404C71.1915 16.3303 70.3987 16.6284 69.6439 16.6284C69.3024 16.6412 68.9634 16.5663 68.6592 16.4109C68.3549 16.2554 68.0956 16.0246 67.9059 15.7404C67.4949 15.1484 67.289 14.3154 67.2882 13.2413C67.2873 12.1673 67.4932 11.3317 67.9059 10.7346C68.0973 10.4529 68.3573 10.2246 68.6614 10.0712C68.9654 9.91786 69.3036 9.8445 69.6439 9.85808C70.405 9.85808 71.1915 10.1498 71.6 10.7346C72.0085 11.3195 72.2114 12.1554 72.2114 13.2413C72.2114 14.3272 72.0072 15.1518 71.6 15.7404Z" fill="#FF3B0E"/>
<path id="Vector_5" d="M82.7417 16.2375C82.1345 16.2375 81.6766 16.1605 81.3679 16.0066C81.2204 15.9364 81.0889 15.8367 80.9815 15.7137C80.8742 15.5906 80.7932 15.4468 80.7438 15.2911C80.625 14.8865 80.5706 14.4657 80.5826 14.0441V1.93701H76.0539V4.81283H77.4645V14.1545C77.4645 16.0151 77.8053 17.3682 78.487 18.2139C79.1686 19.0596 80.279 19.4824 81.8182 19.4824C82.4703 19.4851 83.122 19.4466 83.7693 19.367C84.4077 19.2838 85.0403 19.1605 85.6632 18.9979L85.3055 15.7871C84.2746 16.0874 83.42 16.2375 82.7417 16.2375Z" fill="#FF3B0E"/>
<path id="Vector_6" d="M92.6048 5.47015C92.8708 5.48381 93.1367 5.44149 93.3853 5.34592C93.6338 5.25035 93.8596 5.10365 94.0479 4.91533C94.2363 4.727 94.383 4.50123 94.4785 4.25264C94.5741 4.00404 94.6164 3.73815 94.6028 3.47217C94.6164 3.20618 94.5741 2.94029 94.4785 2.6917C94.383 2.4431 94.2363 2.21734 94.0479 2.02901C93.8596 1.84068 93.6338 1.69399 93.3853 1.59841C93.1367 1.50284 92.8708 1.46052 92.6048 1.47419C92.3388 1.46362 92.0735 1.50745 91.825 1.60299C91.5766 1.69853 91.3503 1.84377 91.1599 2.02982C90.9742 2.22009 90.8292 2.44626 90.7339 2.69448C90.6386 2.9427 90.5949 3.20776 90.6055 3.47344C90.592 3.73943 90.6345 4.00529 90.7303 4.25383C90.826 4.50236 90.9728 4.72803 91.1613 4.91624C91.3497 5.10445 91.5756 5.251 91.8242 5.34642C92.0729 5.44183 92.3388 5.48398 92.6048 5.47015Z" fill="#FF3B0E"/>
<path id="Vector_7" d="M94.4505 10.0078V7.81324V7.12061H89.2355V10.0078H91.3337V16.4737H87.131V19.3609H91.3337H91.5646H94.2197H94.4505H98.0773V16.4737H94.4505V10.0078Z" fill="#FF3B0E"/>
<path id="Vector_8" d="M107.145 9.33797H106.927C106.781 8.5151 106.467 7.90112 105.986 7.49602C105.504 7.09093 104.798 6.88881 103.867 6.88965C102.335 6.88965 101.147 7.44401 100.305 8.55273C99.4626 9.66145 99.0398 11.2281 99.0364 13.2527C99.0364 15.2926 99.4592 16.8571 100.305 17.9464C101.151 19.0357 102.33 19.5824 103.844 19.5867C104.698 19.5867 105.383 19.3828 105.899 18.9752C106.415 18.5676 106.734 17.9553 106.857 17.1383H107.111V18.6479C107.111 19.7473 106.868 20.5804 106.383 21.147C105.897 21.7136 105.116 22.0121 104.038 22.0426L100.113 22.158L100.229 24.8829L103.807 24.7674C106.048 24.6905 107.68 24.1344 108.704 23.0993C109.728 22.0641 110.24 20.4573 110.239 18.2788V7.12053H107.343L107.145 9.33797ZM106.586 15.8393C106.235 16.3789 105.614 16.6482 104.721 16.6474C103.906 16.6474 103.288 16.3624 102.867 15.7924C102.447 15.2224 102.236 14.3767 102.233 13.2553C102.233 12.1694 102.449 11.3283 102.88 10.7321C103.311 10.1359 103.923 9.83736 104.716 9.83651C105.517 9.83651 106.115 10.1101 106.512 10.6573C106.909 11.2044 107.107 12.0704 107.107 13.2553C107.11 14.4384 106.937 15.2998 106.586 15.8393Z" fill="#FF3B0E"/>
<path id="Vector_9" d="M121.782 8.06814C121.074 7.28248 120.073 6.88965 118.78 6.88965C117.871 6.88965 117.195 7.09177 116.751 7.49602C116.307 7.90027 116.026 8.51425 115.908 9.33797H115.561L115.273 7.12053H112.482V19.3608H115.61V13.2527C115.61 10.9896 116.395 9.85808 117.966 9.85808C118.527 9.85808 118.96 10.0581 119.265 10.4581C119.569 10.859 119.721 11.4273 119.721 12.1669V19.3608H122.851V11.393C122.843 9.96125 122.486 8.85295 121.782 8.06814Z" fill="#FF3B0E"/>
</g>
</g>
</g>
<defs>
<clipPath id="clip0_0_457">
<rect width="122.838" height="27" fill="white"/>
</clipPath>
</defs>
</svg>
