<svg width="215" height="76" viewBox="0 0 215 76" fill="none" xmlns="http://www.w3.org/2000/svg">
<path d="M52.5729 1.08569L5.22861 5.31998C6.65249 23.6686 9.57146 60.8597 9.85624 62.8357C10.141 64.8117 15.1958 69.54 17.6876 71.6571L70.3715 69.1871V14.1414L52.5729 1.08569Z" fill="white"/>
<path fill-rule="evenodd" clip-rule="evenodd" d="M47.5094 0.173319L5.45819 3.27714C2.0674 3.57147 0.885742 5.78866 0.885742 8.44674V54.5468C0.885742 56.618 1.62231 58.3883 3.3936 60.7544L13.2787 73.6093C14.9024 75.6792 16.378 76.1221 19.4785 75.9739L68.3122 73.0182C72.4425 72.7241 73.6239 70.8018 73.6239 67.5514V15.6876C73.6239 14.0074 72.9606 13.522 71.0053 12.0912C70.8977 12.0125 70.7862 11.9309 70.6707 11.8461L57.2475 2.3899C54.0019 0.026758 52.6733 -0.270603 47.5094 0.173319ZM20.5852 14.8368C16.5982 15.1067 15.6923 15.168 13.4282 13.3244L7.67045 8.74403C7.08321 8.15173 7.37774 7.41289 8.85209 7.26635L49.2796 4.31089C52.6722 4.01474 54.4422 5.19873 55.7709 6.23254L62.7048 11.2568C63 11.4039 63.7365 12.2894 62.8509 12.2894L21.0999 14.8021L20.5852 14.8368ZM15.9354 67.1072V23.0767C15.9354 21.1562 16.5257 20.269 18.2951 20.12L66.2448 17.3135C67.8711 17.1658 68.6075 18.2008 68.6075 20.12V63.855C68.6075 65.7773 68.3117 67.4049 65.655 67.5513L19.7707 70.2124C17.1153 70.3588 15.9354 69.4736 15.9354 67.1072ZM61.2311 25.4385C61.5253 26.7697 61.2311 28.0996 59.9007 28.2492L57.6898 28.6907V61.1969C55.7703 62.2309 54.0002 62.8221 52.5253 62.8221C50.1638 62.8221 49.5724 62.0827 47.8035 59.8676L33.3423 37.1131V59.1287L37.9184 60.1637C37.9184 60.1637 37.9184 62.8221 34.2265 62.8221L24.0487 63.4138C23.753 62.8221 24.0487 61.3457 25.081 61.0499L27.737 60.3121V31.2034L24.0493 30.9073C23.7536 29.5761 24.4901 27.6569 26.5571 27.5079L37.4757 26.7702L52.5253 49.8209V29.4295L48.6882 28.9881C48.3937 27.3608 49.5724 26.1791 51.0479 26.0326L61.2311 25.4385Z" fill="black"/>
<path d="M100.425 53.8368V33.796H100.772L115.221 53.8368H119.772V24.3878H114.71V44.4082H114.363L99.9144 24.3878H95.343V53.8368H100.425Z" fill="black"/>
<path d="M134.07 54.2858C140.743 54.2858 144.804 49.9184 144.804 42.6735C144.804 35.4491 140.723 31.0613 134.07 31.0613C127.437 31.0613 123.335 35.4695 123.335 42.6735C123.335 49.9184 127.376 54.2858 134.07 54.2858ZM134.07 50.0409C130.539 50.0409 128.519 47.347 128.519 42.6735C128.519 38.0205 130.539 35.3062 134.07 35.3062C137.58 35.3062 139.6 38.0205 139.6 42.6735C139.6 47.347 137.6 50.0409 134.07 50.0409Z" fill="black"/>
<path d="M149.429 26.0409V31.6531H145.898V35.694H149.429V47.8776C149.429 52.2042 151.47 53.9389 156.592 53.9389C157.572 53.9389 158.51 53.8368 159.245 53.694V49.7348C158.633 49.796 158.245 49.8368 157.531 49.8368C155.408 49.8368 154.47 48.8572 154.47 46.6531V35.694H159.245V31.6531H154.47V26.0409H149.429Z" fill="black"/>
<path d="M162.278 53.8368H167.319V31.5103H162.278V53.8368ZM164.788 27.8164C166.461 27.8164 167.808 26.4695 167.808 24.7756C167.808 23.0817 166.461 21.7144 164.788 21.7144C163.135 21.7144 161.768 23.0817 161.768 24.7756C161.768 26.4695 163.135 27.8164 164.788 27.8164Z" fill="black"/>
<path d="M181.147 54.2858C187.821 54.2858 191.882 49.9184 191.882 42.6735C191.882 35.4491 187.8 31.0613 181.147 31.0613C174.514 31.0613 170.412 35.4695 170.412 42.6735C170.412 49.9184 174.453 54.2858 181.147 54.2858ZM181.147 50.0409C177.616 50.0409 175.596 47.347 175.596 42.6735C175.596 38.0205 177.616 35.3062 181.147 35.3062C184.657 35.3062 186.678 38.0205 186.678 42.6735C186.678 47.347 184.678 50.0409 181.147 50.0409Z" fill="black"/>
<path d="M194.894 53.8368H199.955V40.8368C199.955 37.5511 201.853 35.4695 204.874 35.4695C207.955 35.4695 209.384 37.1837 209.384 40.5919V53.8368H214.445V39.3878C214.445 34.0613 211.731 31.0613 206.751 31.0613C203.425 31.0613 201.18 32.5919 200.119 35.0817H199.772V31.5103H194.894V53.8368Z" fill="black"/>
</svg>
