<svg width="211" height="76" viewBox="0 0 211 76" fill="none" xmlns="http://www.w3.org/2000/svg">
<path fill-rule="evenodd" clip-rule="evenodd" d="M29.6085 29.7277C29.1106 26.281 26.2001 23.3322 22.0642 22.2982C17.2772 21.111 12.4901 21.6089 7.70313 22.3365C7.09039 22.4131 6.9372 22.8344 6.78402 23.4471C5.86491 28.3107 4.94581 33.136 4.0267 37.9613C3.10759 42.7866 2.18849 47.6502 1.26938 52.4755C1.0396 53.5478 0.848123 54.6201 0.656643 55.7307C0.541754 56.4583 0.38857 57.186 0.273682 57.9136C0.886419 57.9136 1.49916 57.9136 2.11189 57.9136C3.87352 57.9136 5.59684 57.9136 7.32016 57.8753C7.51165 57.8753 7.77972 57.3774 7.81801 57.0711C8.54564 53.318 9.27327 49.6033 9.9626 45.8503C10.0775 45.1227 10.3073 44.8929 11.0732 44.9695C14.3284 45.2759 17.5069 45.0078 20.6472 44.0121C26.5831 42.0973 30.6042 36.5827 29.6085 29.7277ZM21.528 34.8976C20.3025 37.4252 18.1963 38.6506 15.5538 38.9187C14.6347 39.0336 13.6773 38.9953 12.6816 38.957C12.2221 38.957 11.7242 38.9187 11.2264 38.9187C11.571 37.3103 11.8391 35.7018 12.1455 34.17C12.5284 32.2169 12.8731 30.3404 13.2178 28.4639C13.2944 28.2341 13.6007 27.8894 13.8305 27.8511C15.707 27.5831 17.5452 27.4682 19.3451 28.1192C21.911 29 22.8684 32.0254 21.528 34.8976Z" fill="black"/>
<path fill-rule="evenodd" clip-rule="evenodd" d="M54.8073 32.1786C54.0414 32.0637 53.2755 31.9488 52.5479 31.7956C51.1309 31.5659 49.7522 31.2978 48.3353 31.2212C44.0844 30.9914 39.9867 31.719 36.3869 34.17C30.7191 38.0762 28.3447 43.6674 28.6128 50.4458C28.7277 53.6627 29.9915 56.42 33.0551 57.7987C36.1571 59.2157 39.1825 58.7561 41.8632 56.6881C42.7441 55.9988 43.51 55.1563 44.3142 54.2755C44.6972 53.8542 45.0801 53.4329 45.4631 53.0117C45.4248 53.3946 45.4248 53.7776 45.3865 54.1606C45.3482 55.0797 45.3099 55.9988 45.2333 56.8796C45.1567 57.6838 45.4248 57.9902 46.2673 57.9519C47.8374 57.9136 49.4459 57.9136 51.016 57.9519C51.8585 57.9902 52.05 57.6455 52.1266 56.8413C52.1649 56.42 52.1649 56.0371 52.2032 55.6158C52.3564 53.2798 52.5096 50.9437 52.8542 48.6842C53.5053 44.7014 54.2712 40.7186 55.0371 36.7358C55.2286 35.6635 55.4584 34.5913 55.6498 33.519C55.803 32.7913 55.6881 32.2935 54.8073 32.1786ZM46.6886 40.5272C46.1907 43.6674 45.6929 46.7694 43.8929 49.5267C43.4334 50.2544 42.8207 50.8671 42.1696 51.4415C41.0973 52.3607 39.8336 52.7819 38.4549 52.2075C37.0762 51.633 36.5784 50.4075 36.5018 49.1055C36.2337 44.8163 37.689 41.2548 40.9824 38.4975C42.7058 37.0422 44.7738 36.5444 47.263 37.2337C47.0332 38.3443 46.88 39.4166 46.6886 40.5272Z" fill="black"/>
<path fill-rule="evenodd" clip-rule="evenodd" d="M105.473 33.3658C102.792 31.3744 99.7287 30.9531 96.4735 31.3361C85.5591 32.5616 81.0785 44.1653 83.4145 51.5564C84.8315 56.0754 88.6611 58.5646 95.4395 58.5646C100.073 58.4497 104.707 55.8073 107.579 50.3692C109.111 47.4587 109.686 44.3185 109.456 41.0633C109.264 37.923 108.001 35.2806 105.473 33.3658ZM98.6947 50.8288C97.8139 51.9011 96.7416 52.6287 95.3246 52.7819C92.7971 53.0117 90.8823 51.2884 90.6908 48.6076C90.6908 48.3396 90.6908 48.0715 90.6908 47.8034C90.6908 47.6885 90.6908 47.5353 90.6908 47.4205C90.7674 44.4717 91.495 41.7526 93.2566 39.3017C94.0608 38.2294 95.0565 37.4252 96.3586 37.1188C99.0776 36.5061 101.299 38.0762 101.529 41.025C101.797 44.5865 100.954 47.9183 98.6947 50.8288Z" fill="black"/>
<path fill-rule="evenodd" clip-rule="evenodd" d="M132.472 31.3361C129.14 30.7999 126.268 31.7573 123.74 33.9785C123.281 34.3998 122.821 34.821 122.323 35.2806C122.094 35.5104 121.864 35.7018 121.634 35.9316C121.749 34.5913 121.864 33.2509 121.979 31.8722H115.507C113.937 40.5654 112.328 49.1821 110.643 57.9902C111.141 57.9902 111.639 57.9902 112.137 57.9902C114.051 57.9902 115.851 57.9902 117.651 57.9519C117.919 57.9136 118.302 57.4157 118.379 57.0711C118.8 54.8882 119.183 52.7053 119.604 50.4841C119.719 49.8331 119.834 49.2204 119.949 48.5693C120.409 46.0035 120.868 43.3994 122.208 41.0633C123.089 39.4932 124.2 38.0379 126.038 37.4635C127.915 36.889 129.37 37.7698 129.6 39.7229C129.676 40.2974 129.715 40.8718 129.638 41.4463C129.14 44.7397 128.566 48.0332 127.991 51.3267C127.608 53.4712 127.187 55.6158 126.804 57.7604C126.842 57.7987 126.919 57.7987 126.957 57.837C127.072 57.9136 127.149 57.9519 127.225 57.9519C129.408 57.9902 131.629 57.9902 133.812 57.9519C134.08 57.9136 134.463 57.454 134.54 57.1094C135.038 54.5818 135.536 52.0543 136.033 49.4884C136.263 48.3396 136.493 47.1524 136.684 46.0035L136.799 45.3908C137.335 42.5186 137.91 39.6846 137.565 36.6975C137.144 33.8253 135.229 31.7956 132.472 31.3361Z" fill="black"/>
<path fill-rule="evenodd" clip-rule="evenodd" d="M159.509 31.7956C154.645 30.3404 150.203 31.3744 146.412 34.5913C141.778 38.5358 140.054 43.744 140.744 49.7182C141.203 53.9308 143.501 56.9562 147.675 58.0285C152.156 59.1774 156.56 58.5646 160.849 56.8413C161.156 56.7264 161.5 56.2286 161.5 55.9222C161.424 54.6584 161.309 53.4329 161.194 52.1692C161.156 51.8628 161.117 51.5564 161.117 51.2501C161.041 51.2501 160.964 51.2501 160.926 51.2501C160.849 51.2501 160.811 51.2501 160.773 51.2501C160.505 51.365 160.198 51.4415 159.968 51.5564C157.517 52.5138 154.99 52.8968 152.386 52.5904C149.667 52.2458 147.867 50.3693 148.058 47.6885C148.633 47.6885 149.169 47.6885 149.743 47.6885C150.854 47.6885 151.965 47.7268 153.037 47.6885C155.679 47.5353 158.245 47.1141 160.619 45.8886C163.683 44.3568 165.1 41.8292 164.87 38.5358C164.526 35.204 162.726 32.7913 159.509 31.7956ZM156.215 41.2931C154.645 42.0973 150.624 42.5951 148.671 42.1739C149.092 38.7655 152.692 36.1231 155.718 36.8507C156.752 37.1188 157.479 37.6549 157.671 38.7272C157.824 39.8378 157.288 40.7186 156.215 41.2931Z" fill="black"/>
<path fill-rule="evenodd" clip-rule="evenodd" d="M184.784 31.7956C179.231 30.2638 174.406 31.7573 170.462 35.9316C166.823 39.8378 165.445 44.5482 166.096 49.7948C166.594 53.8925 168.738 56.8796 172.836 57.9902C177.393 59.254 181.874 58.6412 186.201 56.8413C186.469 56.7264 186.852 56.2286 186.814 55.9222C186.776 54.8882 186.661 53.8159 186.546 52.7436C186.508 52.2075 186.431 51.6713 186.393 51.1352C186.163 51.2118 185.933 51.3267 185.742 51.4032C185.512 51.4798 185.282 51.5947 185.091 51.6713C182.678 52.5521 180.227 52.9351 177.7 52.6287C174.981 52.2841 173.181 50.3693 173.41 47.8417C174.176 47.8417 174.904 47.8417 175.593 47.88C179.078 47.8034 182.487 47.5736 185.703 46.0801C188.882 44.5865 190.414 42.059 190.222 38.6889C189.993 35.204 188.193 32.753 184.784 31.7956ZM181.797 41.1782C180.878 41.5994 179.844 41.9058 178.848 42.059C177.776 42.2122 176.666 42.2505 175.555 42.3271C175.095 42.3654 174.636 42.3654 174.176 42.4037C174.521 38.8038 178.274 36.0465 181.261 36.889C182.257 37.1571 182.984 37.6549 183.138 38.7272C183.252 39.8378 182.793 40.7569 181.797 41.1782Z" fill="black"/>
<path fill-rule="evenodd" clip-rule="evenodd" d="M201.022 37.0039L201.06 36.5061C201.175 34.9742 201.29 33.4424 201.443 31.7956C200.907 31.7956 200.409 31.7956 199.873 31.7956C198.379 31.7956 196.924 31.7956 195.469 31.8339C195.277 31.8722 194.894 32.3318 194.856 32.5999C194.32 39.1868 193.018 45.6205 191.754 52.016L191.639 52.6287C191.295 54.352 190.988 56.0754 190.682 57.9902C191.18 57.9902 191.678 57.9902 192.175 57.9902C194.129 57.9902 196.005 57.9902 197.882 57.9519C198.073 57.9519 198.341 57.454 198.379 57.1477C198.647 55.8839 198.877 54.5818 199.107 53.3181C199.567 50.9437 199.988 48.5693 200.562 46.2716C201.826 41.1016 203.932 39.3017 208.949 38.6506C209.141 38.6123 209.485 38.3826 209.524 38.2294C209.83 36.7741 210.136 35.2806 210.443 33.7487C210.596 32.9445 210.749 32.1403 210.902 31.3361C206.039 30.7233 203.358 33.5573 201.022 37.0039Z" fill="black"/>
<path fill-rule="evenodd" clip-rule="evenodd" d="M124.084 1.00496C123.816 0.928365 123.586 0.890069 123.318 0.813477C122.514 0.813477 121.748 0.813477 120.906 0.851773C120.638 0.928365 120.331 0.966661 120.025 1.04325C119.68 1.11985 119.297 1.19644 118.953 1.27303C115.046 2.00066 111.37 3.37932 107.847 5.17923C100.187 9.08543 93.2941 14.1022 87.1285 20.0764C83.0308 24.0209 79.048 28.1186 75.1801 32.3695C68.44 39.7989 62.619 47.956 58.0234 56.879C55.6491 61.5128 53.5045 66.2232 52.5471 71.3932C52.3556 72.3506 52.662 73.4229 52.9683 74.3803C53.0832 74.7633 53.8109 75.0313 54.3087 75.1845C54.4236 75.2228 54.8066 74.6101 54.998 74.2271C55.0746 74.0739 55.1129 73.959 55.1895 73.8059C56.3001 71.3932 57.7937 68.0997 59.0957 65.9169C61.853 61.3213 64.0359 57.7598 67.0996 53.394C72.0398 46.3475 77.8225 39.4542 83.9116 33.3652C89.656 27.6208 95.4004 22.4508 102.6 18.5829C105.932 16.8212 109.302 15.0596 112.787 13.6427C118.761 11.1534 125.042 9.4684 131.437 8.51099C132.126 8.39611 133.046 7.85996 133.275 7.32381C133.467 6.82597 133.007 5.83027 132.509 5.37071C130.556 3.34102 128.258 1.80918 125.386 1.34962C124.927 1.23473 124.505 1.11985 124.084 1.00496ZM65.7209 35.8927C66.9464 32.5609 67.5592 29.1143 67.6358 25.5528C67.5975 25.1698 67.5592 24.7868 67.5592 24.4039C67.5209 23.638 67.4443 22.872 67.3294 22.1061C66.6401 16.1702 64.0742 11.1151 60.0531 6.82597C59.5553 6.32812 58.9042 5.94515 58.2532 5.71538C57.6022 5.44731 57.1426 5.83027 57.2192 6.59619V6.63448C57.2575 7.28552 57.3341 7.97485 57.449 8.58759C57.6405 9.62158 57.7937 10.6173 57.9851 11.6513C58.6362 15.2894 59.2489 18.9275 59.9382 22.5657C60.6276 26.2421 61.3935 29.8419 62.1977 33.4801C62.4658 34.6289 62.9253 35.7778 63.4998 36.8501C63.921 37.6543 64.5338 37.5777 65.1082 36.8501C65.338 36.582 65.5678 36.2757 65.7209 35.8927Z" fill="#FC461E"/>
</svg>
