<svg width="100" height="100" viewBox="0 0 100 100" fill="none" xmlns="http://www.w3.org/2000/svg">
<circle cx="50" cy="50" r="50" fill="black" fill-opacity="0.2"/>
<g clip-path="url(#clip0_0_1133)">
<path d="M45 52.5C45 53.8261 45.5268 55.0979 46.4645 56.0355C47.4021 56.9732 48.6739 57.5 50 57.5C51.3261 57.5 52.5979 56.9732 53.5355 56.0355C54.4732 55.0979 55 53.8261 55 52.5C55 51.1739 54.4732 49.9021 53.5355 48.9645C52.5979 48.0268 51.3261 47.5 50 47.5C48.6739 47.5 47.4021 48.0268 46.4645 48.9645C45.5268 49.9021 45 51.1739 45 52.5Z" stroke="#141414" stroke-width="3.75" stroke-linecap="round" stroke-linejoin="round"/>
<path d="M40 72.5V70C40 68.6739 40.5268 67.4021 41.4645 66.4645C42.4021 65.5268 43.6739 65 45 65H55C56.3261 65 57.5979 65.5268 58.5355 66.4645C59.4732 67.4021 60 68.6739 60 70V72.5" stroke="#141414" stroke-width="3.75" stroke-linecap="round" stroke-linejoin="round"/>
<path d="M57.5 32.5C57.5 33.8261 58.0268 35.0979 58.9645 36.0355C59.9021 36.9732 61.1739 37.5 62.5 37.5C63.8261 37.5 65.0979 36.9732 66.0355 36.0355C66.9732 35.0979 67.5 33.8261 67.5 32.5C67.5 31.1739 66.9732 29.9021 66.0355 28.9645C65.0979 28.0268 63.8261 27.5 62.5 27.5C61.1739 27.5 59.9021 28.0268 58.9645 28.9645C58.0268 29.9021 57.5 31.1739 57.5 32.5Z" stroke="#141414" stroke-width="3.75" stroke-linecap="round" stroke-linejoin="round"/>
<path d="M62.5 45H67.5C68.8261 45 70.0979 45.5268 71.0355 46.4645C71.9732 47.4021 72.5 48.6739 72.5 50V52.5" stroke="#141414" stroke-width="3.75" stroke-linecap="round" stroke-linejoin="round"/>
<path d="M32.5 32.5C32.5 33.8261 33.0268 35.0979 33.9645 36.0355C34.9021 36.9732 36.1739 37.5 37.5 37.5C38.8261 37.5 40.0979 36.9732 41.0355 36.0355C41.9732 35.0979 42.5 33.8261 42.5 32.5C42.5 31.1739 41.9732 29.9021 41.0355 28.9645C40.0979 28.0268 38.8261 27.5 37.5 27.5C36.1739 27.5 34.9021 28.0268 33.9645 28.9645C33.0268 29.9021 32.5 31.1739 32.5 32.5Z" stroke="#141414" stroke-width="3.75" stroke-linecap="round" stroke-linejoin="round"/>
<path d="M27.5 52.5V50C27.5 48.6739 28.0268 47.4021 28.9645 46.4645C29.9021 45.5268 31.1739 45 32.5 45H37.5" stroke="#141414" stroke-width="3.75" stroke-linecap="round" stroke-linejoin="round"/>
</g>
<defs>
<clipPath id="clip0_0_1133">
<rect width="60" height="60" fill="white" transform="translate(20 20)"/>
</clipPath>
</defs>
</svg>
