<svg width="100" height="100" viewBox="0 0 100 100" fill="none" xmlns="http://www.w3.org/2000/svg">
<circle cx="50" cy="50" r="50" fill="#FFDFD7"/>
<g clip-path="url(#clip0_0_1112)">
<path d="M30 52.5C34.4577 53.0298 38.6076 55.0438 41.7819 58.2181C44.9562 61.3924 46.9702 65.5423 47.5 70C49.7098 68.726 51.5582 66.9096 52.8706 64.7223C54.1829 62.5351 54.9158 60.0493 55 57.5C59.1978 56.0233 62.8634 53.335 65.5334 49.775C68.2033 46.2151 69.7577 41.9433 70 37.5C70 35.5109 69.2098 33.6032 67.8033 32.1967C66.3968 30.7902 64.4891 30 62.5 30C58.0567 30.2423 53.7849 31.7967 50.225 34.4666C46.665 37.1366 43.9767 40.8022 42.5 45C39.9507 45.0842 37.4649 45.8171 35.2777 47.1294C33.0904 48.4418 31.274 50.2902 30 52.5Z" stroke="#FF3B0E" stroke-width="3.75" stroke-linecap="round" stroke-linejoin="round"/>
<path d="M37.5 55C34.8981 56.4689 32.7941 58.6815 31.4579 61.3539C30.1217 64.0264 29.614 67.0371 30 70C32.9629 70.386 35.9736 69.8784 38.6461 68.5421C41.3186 67.2059 43.5311 65.1019 45 62.5" stroke="#FF3B0E" stroke-width="3.75" stroke-linecap="round" stroke-linejoin="round"/>
<path d="M55 42.5C55 43.163 55.2634 43.7989 55.7322 44.2678C56.2011 44.7366 56.837 45 57.5 45C58.163 45 58.7989 44.7366 59.2678 44.2678C59.7366 43.7989 60 43.163 60 42.5C60 41.837 59.7366 41.2011 59.2678 40.7322C58.7989 40.2634 58.163 40 57.5 40C56.837 40 56.2011 40.2634 55.7322 40.7322C55.2634 41.2011 55 41.837 55 42.5Z" stroke="#FF3B0E" stroke-width="3.75" stroke-linecap="round" stroke-linejoin="round"/>
</g>
<defs>
<clipPath id="clip0_0_1112">
<rect width="60" height="60" fill="white" transform="translate(20 20)"/>
</clipPath>
</defs>
</svg>
