<svg width="209" height="64" viewBox="0 0 209 64" fill="none" xmlns="http://www.w3.org/2000/svg">
<g id="Group">
<g id="Group_2">
<g id="Group_3">
<path id="Vector" d="M31.2131 0.826172C13.9844 0.826172 0 14.7929 0 32C0 49.2443 13.9844 63.1738 31.2131 63.1738C48.4791 63.1738 62.4262 49.207 62.4262 32C62.4635 14.7929 48.4791 0.826172 31.2131 0.826172ZM45.5331 45.8178C44.9737 46.7489 43.7804 47.0096 42.8481 46.4509C35.5016 41.9816 26.2906 40.976 15.4014 43.4341C14.3573 43.6576 13.3131 43.0244 13.0894 41.9816C12.8656 40.9387 13.4996 39.8959 14.5437 39.6724C26.4398 36.9535 36.6577 38.1081 44.8618 43.1362C45.8314 43.6948 46.1297 44.8867 45.5331 45.8178ZM49.3741 37.326C48.6656 38.4806 47.1739 38.8158 46.0179 38.1454C37.6273 32.9684 24.8362 31.4786 14.9166 34.4954C13.6114 34.8678 12.2689 34.1602 11.896 32.8939C11.5231 31.5903 12.2317 30.2495 13.5369 29.877C24.8735 26.4505 38.9697 28.0893 48.6283 34.0112C49.7097 34.6816 50.0826 36.1714 49.3741 37.326ZM49.7097 28.4617C39.641 22.5026 23.0462 21.9439 13.425 24.849C11.896 25.3332 10.2552 24.4393 9.77041 22.9123C9.28561 21.3853 10.1806 19.7465 11.7096 19.2623C22.7479 15.9103 41.0954 16.5807 52.6558 23.4337C54.0356 24.2531 54.4831 26.0408 53.6626 27.4189C52.8795 28.8342 51.0895 29.2811 49.7097 28.4617Z" fill="#1ED760"/>
</g>
</g>
<g id="Group_4">
<g id="Group_5">
<path id="Vector_2" d="M85.1344 29.6166C79.7272 28.3503 78.7949 27.4192 78.7949 25.5197C78.7949 23.732 80.473 22.5401 82.9715 22.5401C85.3955 22.5401 87.8194 23.4713 90.3553 25.3335C90.4299 25.408 90.5417 25.408 90.6163 25.408C90.7282 25.408 90.8028 25.3335 90.8401 25.259L93.4878 21.5345C93.5996 21.3855 93.5624 21.1621 93.4132 21.0503C90.3926 18.6294 86.999 17.4749 83.0461 17.4749C77.2286 17.4749 73.1638 20.9759 73.1638 25.9666C73.1638 31.3299 76.6692 33.2294 82.7478 34.6819C87.894 35.8737 88.789 36.8793 88.789 38.6298C88.789 40.6038 87.0363 41.8329 84.2022 41.8329C81.0697 41.8329 78.4965 40.79 75.6251 38.2946C75.5505 38.2202 75.4386 38.2202 75.364 38.2202C75.2522 38.2202 75.1776 38.2574 75.1403 38.3319L72.1942 41.8329C72.0824 41.9819 72.0824 42.2053 72.2315 42.3171C75.5878 45.2966 79.6899 46.8609 84.1276 46.8609C90.3926 46.8609 94.4574 43.4344 94.4574 38.1457C94.3828 33.6763 91.7351 31.2182 85.1344 29.6166Z" fill="#1ED760"/>
<path id="Vector_3" d="M108.591 24.2903C105.868 24.2903 103.631 25.3704 101.804 27.5678V25.1097C101.804 24.9234 101.654 24.7745 101.468 24.7745H96.6573C96.4709 24.7745 96.3217 24.9234 96.3217 25.1097V52.5218C96.3217 52.708 96.4709 52.857 96.6573 52.857H101.468C101.654 52.857 101.804 52.708 101.804 52.5218V43.881C103.631 45.9295 105.868 46.9351 108.591 46.9351C113.625 46.9351 118.771 43.0616 118.771 35.6127C118.771 28.201 113.625 24.2903 108.591 24.2903ZM113.14 35.6127C113.14 39.4116 110.791 42.0188 107.472 42.0188C104.153 42.0188 101.692 39.2627 101.692 35.6127C101.692 31.9627 104.19 29.2066 107.472 29.2066C110.754 29.2066 113.14 31.8882 113.14 35.6127Z" fill="#1ED760"/>
<path id="Vector_4" d="M131.861 24.2903C125.372 24.2903 120.263 29.3183 120.263 35.6872C120.263 42.0188 125.335 46.9723 131.786 46.9723C138.312 46.9723 143.421 41.9815 143.421 35.6127C143.421 29.2811 138.349 24.2903 131.861 24.2903ZM131.861 42.0933C128.393 42.0933 125.782 39.2999 125.782 35.6499C125.782 31.9627 128.318 29.2811 131.786 29.2811C135.254 29.2811 137.902 32.0744 137.902 35.7617C137.902 39.4116 135.366 42.0933 131.861 42.0933Z" fill="#1ED760"/>
<path id="Vector_5" d="M157.331 24.7357H152.035V19.3352C152.035 19.149 151.886 19 151.7 19H146.889C146.703 19 146.553 19.149 146.553 19.3352V24.7729H144.241C144.055 24.7729 143.906 24.9219 143.906 25.1081V29.2423C143.906 29.4285 144.055 29.5775 144.241 29.5775H146.553V40.304C146.553 44.6244 148.716 46.8218 152.968 46.8218C154.683 46.8218 156.137 46.4493 157.48 45.7045C157.592 45.63 157.666 45.5182 157.666 45.4065V41.4586C157.666 41.3468 157.592 41.2351 157.517 41.1606C157.405 41.0861 157.293 41.0861 157.181 41.1606C156.249 41.6448 155.354 41.831 154.347 41.831C152.781 41.831 152.11 41.1234 152.11 39.5591V29.6147H157.405C157.592 29.6147 157.741 29.4658 157.741 29.2795V25.1081C157.666 24.9219 157.517 24.7357 157.331 24.7357Z" fill="#1ED760"/>
<path id="Vector_6" d="M175.828 24.7748V24.1044C175.828 22.1304 176.574 21.2738 178.252 21.2738C179.259 21.2738 180.079 21.46 180.974 21.758C181.086 21.7952 181.198 21.758 181.31 21.7207C181.384 21.6463 181.459 21.5345 181.459 21.4228V17.3631C181.459 17.2141 181.347 17.0652 181.198 17.0279C180.228 16.73 179.035 16.4692 177.17 16.4692C172.695 16.4692 170.346 18.9646 170.346 23.732V24.7376H168.034C167.847 24.7376 167.661 24.8865 167.661 25.0728V29.2442C167.661 29.4304 167.81 29.5794 168.034 29.5794H170.346V46.116C170.346 46.3022 170.495 46.4512 170.682 46.4512H175.492C175.679 46.4512 175.828 46.3022 175.828 46.116V29.6166H180.34L187.239 46.1533C186.456 47.9038 185.673 48.239 184.629 48.239C183.771 48.239 182.876 47.9783 181.981 47.4941C181.906 47.4568 181.794 47.4568 181.683 47.4568C181.608 47.4941 181.496 47.5686 181.459 47.6431L179.818 51.2186C179.743 51.4048 179.818 51.591 179.967 51.6655C181.683 52.5966 183.212 52.9691 185.113 52.9691C188.693 52.9691 190.633 51.293 192.385 46.8609L200.776 25.259C200.813 25.1473 200.813 25.0355 200.739 24.9238C200.664 24.8121 200.552 24.7748 200.44 24.7748H195.406C195.257 24.7748 195.108 24.8865 195.07 24.9983L189.924 39.6727L184.405 24.9983C184.368 24.8493 184.218 24.7748 184.069 24.7748H175.828Z" fill="#1ED760"/>
<path id="Vector_7" d="M165.126 24.7356H160.315C160.129 24.7356 159.98 24.8846 159.98 25.0708V46.1141C159.98 46.3003 160.129 46.4493 160.315 46.4493H165.126C165.312 46.4493 165.461 46.3003 165.461 46.1141V25.108C165.461 24.9218 165.312 24.7356 165.126 24.7356Z" fill="#1ED760"/>
<path id="Vector_8" d="M162.7 15.165C160.798 15.165 159.232 16.7293 159.232 18.6288C159.232 20.5283 160.798 22.0926 162.7 22.0926C164.602 22.0926 166.168 20.5283 166.168 18.6288C166.168 16.7293 164.639 15.165 162.7 15.165Z" fill="#1ED760"/>
</g>
<g id="Group_6">
<path id="Vector_9" d="M205.026 31.5165C203.124 31.5165 201.633 29.9894 201.633 28.1272C201.633 26.265 203.124 24.7007 205.064 24.7007C206.965 24.7007 208.457 26.2277 208.457 28.09C208.42 29.9522 206.928 31.5165 205.026 31.5165ZM205.026 25.0359C203.274 25.0359 201.968 26.4139 201.968 28.1272C201.968 29.8032 203.274 31.1813 205.026 31.1813C206.779 31.1813 208.084 29.8032 208.084 28.09C208.084 26.4139 206.779 25.0359 205.026 25.0359ZM205.772 28.4624L206.742 29.8032H205.921L205.064 28.5741H204.318V29.8032H203.646V26.2277H205.25C206.07 26.2277 206.63 26.6374 206.63 27.3823C206.63 27.941 206.257 28.3134 205.772 28.4624ZM205.213 26.8609H204.318V27.9782H205.213C205.66 27.9782 205.921 27.7548 205.921 27.4195C205.921 27.0471 205.66 26.8609 205.213 26.8609Z" fill="#1ED760"/>
</g>
</g>
</g>
</svg>
