<svg width="100" height="100" viewBox="0 0 100 100" fill="none" xmlns="http://www.w3.org/2000/svg">
<circle cx="50" cy="50" r="50" fill="#CED2E8"/>
<g clip-path="url(#clip0_0_1122)">
<path d="M27.5 50C27.5 52.9547 28.082 55.8806 29.2127 58.6104C30.3434 61.3402 32.0008 63.8206 34.0901 65.9099C36.1794 67.9992 38.6598 69.6566 41.3896 70.7873C44.1194 71.918 47.0453 72.5 50 72.5C52.9547 72.5 55.8806 71.918 58.6104 70.7873C61.3402 69.6566 63.8206 67.9992 65.9099 65.9099C67.9992 63.8206 69.6566 61.3402 70.7873 58.6104C71.918 55.8806 72.5 52.9547 72.5 50C72.5 47.0453 71.918 44.1194 70.7873 41.3896C69.6566 38.6598 67.9992 36.1794 65.9099 34.0901C63.8206 32.0008 61.3402 30.3434 58.6104 29.2127C55.8806 28.082 52.9547 27.5 50 27.5C47.0453 27.5 44.1194 28.082 41.3896 29.2127C38.6598 30.3434 36.1794 32.0008 34.0901 34.0901C32.0008 36.1794 30.3434 38.6598 29.2127 41.3896C28.082 44.1194 27.5 47.0453 27.5 50Z" stroke="#2C3E50" stroke-width="3.75" stroke-linecap="round" stroke-linejoin="round"/>
<path d="M50 50L57.5 55" stroke="#2C3E50" stroke-width="3.75" stroke-linecap="round" stroke-linejoin="round"/>
<path d="M50 37.5V50" stroke="#2C3E50" stroke-width="3.75" stroke-linecap="round" stroke-linejoin="round"/>
</g>
<defs>
<clipPath id="clip0_0_1122">
<rect width="60" height="60" fill="white" transform="translate(20 20)"/>
</clipPath>
</defs>
</svg>
