<svg width="189" height="62" viewBox="0 0 189 62" fill="none" xmlns="http://www.w3.org/2000/svg">
<path fill-rule="evenodd" clip-rule="evenodd" d="M56.011 2.29947L39.7325 41.7316L33.3933 8.08285C32.9238 4.92828 30.2629 2.22436 26.5845 2.22436H0.445068V4.02697C5.84514 4.92828 10.8539 6.7309 15.3148 8.98416C17.1149 9.88547 18.367 11.7632 18.9149 13.9413L31.1237 60.584H47.4022L71.8199 2.29947H56.011Z" fill="#172B85"/>
<path fill-rule="evenodd" clip-rule="evenodd" d="M78.0809 2.29947L65.4807 60.584H80.82L93.4985 2.29947H78.0809Z" fill="#172B85"/>
<path fill-rule="evenodd" clip-rule="evenodd" d="M113.299 18.4479C113.768 15.2933 116.429 13.4907 119.638 13.4907C124.568 13.04 130.047 13.9413 134.508 16.1946L137.247 3.65143C132.708 1.84882 127.777 0.94751 123.238 0.94751C108.368 0.94751 97.4898 8.98416 97.4898 20.2505C97.4898 28.7378 105.159 33.2443 110.56 35.9483C116.429 38.6522 118.699 40.4548 118.229 43.0836C118.229 47.1395 113.69 48.9421 109.229 48.9421C103.829 48.9421 98.3507 47.5901 93.4202 45.3369L90.681 57.8801C96.1594 60.1333 102.029 61.0346 107.429 61.0346C124.099 61.4853 134.508 53.4486 134.508 41.281C134.586 26.0339 113.299 25.1326 113.299 18.4479Z" fill="#172B85"/>
<path fill-rule="evenodd" clip-rule="evenodd" d="M176.065 2.29947H162.995C160.256 2.29947 157.595 4.10208 156.656 6.806L134.116 60.584H149.925L153.056 52.0967H172.465L174.265 60.584H188.274L176.065 2.29947ZM157.125 39.929L165.265 17.9972L169.804 39.929H157.125Z" fill="#172B85"/>
</svg>
